<svg width="14" height="14" viewBox="0 0 14 14" fill="none" xmlns="http://www.w3.org/2000/svg">
<g clip-path="url(#clip0_1154_289)">
<path d="M2.85518 11.1447L0.460086 8.74965C0.175984 8.45844 0 8.0467 0 7.64425C0 7.45793 0.105 7.16667 0.184242 6.99993L2.39509 2.39502L2.85518 11.1447Z" fill="#01579B"/>
<path d="M11.0531 2.85518L8.65799 0.460086C8.44908 0.250086 8.01366 0 7.64518 0C7.32821 0 7.01736 0.0638203 6.81666 0.184242L2.396 2.39509L11.0531 2.85518ZM5.71022 14H11.5132V11.5133L7.18411 10.131L3.22353 11.5133L5.71022 14Z" fill="#40C4FF"/>
<path d="M2.39526 9.85516C2.39526 10.5942 2.4879 10.7753 2.85535 11.1448L3.22383 11.5133H11.5135L7.4613 6.90838L2.39526 2.39502V9.85516Z" fill="#29B6F6"/>
<path d="M9.76375 2.39404H2.39526L11.5135 11.5123H14.0002V5.80195L11.0523 2.85413C10.6386 2.43932 10.2711 2.39404 9.76375 2.39404Z" fill="#01579B"/>
<path opacity="0.2" d="M2.94777 11.2364C2.57929 10.8669 2.48769 10.5026 2.48769 9.85516V2.48662L2.39609 2.39502V9.85511C2.39499 10.5025 2.39499 10.6816 2.94777 11.2363L3.22362 11.5122L2.94777 11.2364Z" fill="white"/>
<path opacity="0.2" d="M13.9083 5.71045V11.4208H11.4216L11.5132 11.5134H13.9999V5.80205L13.9083 5.71045Z" fill="#263238"/>
<path opacity="0.2" d="M11.0531 2.85511C10.5961 2.39808 10.2225 2.39502 9.67184 2.39502H2.396L2.4876 2.48662H9.67184C9.94664 2.48662 10.6404 2.4403 11.0531 2.85511Z" fill="white"/>
<path opacity="0.2" d="M13.9081 5.71036L11.053 2.85512L8.65787 0.460141C8.44897 0.250086 8.01354 0 7.64506 0C7.32809 0 7.01725 0.0638203 6.81654 0.184242L2.39588 2.39509L0.185029 7C0.105732 7.16778 0.000732422 7.45905 0.000732422 7.64433C0.000732422 8.04677 0.177811 8.45742 0.460873 8.74973L2.66757 10.9411C2.72007 11.0059 2.78186 11.0718 2.85493 11.1448L2.94653 11.2364L3.22237 11.5123L5.61747 13.9074L5.70907 13.999H11.5109V11.5123H13.9976V5.80191L13.9081 5.71036Z" fill="url(#paint0_radial_1154_289)"/>
</g>
<defs>
<radialGradient id="paint0_radial_1154_289" cx="0" cy="0" r="1" gradientUnits="userSpaceOnUse" gradientTransform="translate(699.845 699.871) scale(699.9 699.899)">
<stop stop-color="white" stop-opacity="0.1"/>
<stop offset="1" stop-color="white" stop-opacity="0"/>
</radialGradient>
<clipPath id="clip0_1154_289">
<rect width="14" height="14" fill="white"/>
</clipPath>
</defs>
</svg>
