<svg width="33" height="50" viewBox="0 0 33 50" fill="none" xmlns="http://www.w3.org/2000/svg">
<path d="M8.25177 50.0001C12.8049 50.0001 16.5001 46.2668 16.5001 41.6668V33.3335H8.25177C3.69868 33.3335 0.00341797 37.0668 0.00341797 41.6668C0.00341797 46.2668 3.69868 50.0001 8.25177 50.0001Z" fill="#0ACF83"/>
<path d="M0.00341797 24.9998C0.00341797 20.3998 3.69868 16.6665 8.25177 16.6665H16.5001V33.3331H8.25177C3.69868 33.3331 0.00341797 29.5998 0.00341797 24.9998Z" fill="#A259FF"/>
<path d="M0.00341797 8.33333C0.00341797 3.73333 3.69868 0 8.25177 0H16.5001V16.6667H8.25177C3.69868 16.6667 0.00341797 12.9333 0.00341797 8.33333Z" fill="#F24E1E"/>
<path d="M16.5 0H24.7484C29.3015 0 32.9968 3.73333 32.9968 8.33333C32.9968 12.9333 29.3015 16.6667 24.7484 16.6667H16.5V0Z" fill="#FF7262"/>
<path d="M32.9968 24.9998C32.9968 29.5998 29.3015 33.3331 24.7484 33.3331C20.1953 33.3331 16.5 29.5998 16.5 24.9998C16.5 20.3998 20.1953 16.6665 24.7484 16.6665C29.3015 16.6665 32.9968 20.3998 32.9968 24.9998Z" fill="#1ABCFE"/>
</svg>
