<svg width="13" height="14" viewBox="0 0 13 14" fill="none" xmlns="http://www.w3.org/2000/svg">
<path d="M12.3445 0L11.2199 12.5985L6.16469 14L1.12342 12.6005L0 0H12.3445Z" fill="#E44D26"/>
<path d="M6.17236 12.9288L10.2572 11.7963L11.2183 1.03027H6.17236V12.9288Z" fill="#F16529"/>
<path d="M3.98605 4.1211H6.17225V2.57568H2.29712L2.33411 2.99029L2.71394 7.249H6.17225V5.70361H4.12728L3.98605 4.1211Z" fill="#EBEBEB"/>
<path d="M4.3343 8.02197H2.78296L2.99947 10.4485L6.16511 11.3273L6.17222 11.3253V9.71744L6.16545 9.71924L4.44432 9.2545L4.3343 8.02197Z" fill="#EBEBEB"/>
<path d="M6.16699 7.249H8.06998L7.8906 9.25327L6.16699 9.71848V11.3263L9.33515 10.4482L9.35839 10.1871L9.72155 6.1186L9.75925 5.70361H6.16699V7.249Z" fill="white"/>
<path d="M6.16699 4.11732V4.1211H9.89987L9.93087 3.77374L10.0013 2.99029L10.0382 2.57568H6.16699V4.11732Z" fill="white"/>
</svg>
