<svg width="128" height="128" viewBox="0 0 128 128" fill="none" xmlns="http://www.w3.org/2000/svg">
<g clip-path="url(#clip0_1157_302)">
<path d="M0 0H128V128H0V0Z" fill="#2A0634"/>
<path d="M0 0V128H128V0H0ZM123 123H5V5H123V123Z" fill="#E976B9"/>
<path d="M69 47.0998C68.9 37.6998 61.2 30.1998 51.8 30.2998H33.3V88.7998H42.9001V67.4998H51.2001C61.0001 67.3998 69 59.2998 69 49.3998V47.0998ZM59.4001 50.0998C59.4001 55.0998 55.3 59.1998 50.3 59.1998H42.9001V38.4998H50.3C55.3 38.4998 59.4001 42.5998 59.4001 47.5998V50.0998ZM77.1 88.7998V48.8998C77.1 48.8998 87.3 43.7998 97.3 45.0998V53.3998C97.3 53.3998 90.3 53.3998 87.2 54.6998V88.8998H77.1V88.7998Z" fill="#E976B9"/>
</g>
<defs>
<clipPath id="clip0_1157_302">
<rect width="128" height="128" fill="white"/>
</clipPath>
</defs>
</svg>
